<svg width="8" height="14" viewBox="0 0 8 14" fill="none" xmlns="http://www.w3.org/2000/svg">
<path d="M2.22716 7.90239H0.38716C0.0903597 7.90239 -0.00244141 7.79739 -0.00244141 7.53451V5.41428C-0.00244141 5.13428 0.10876 5.04639 0.38716 5.04639H2.22716V3.50484C2.20546 2.81274 2.37862 2.12802 2.72796 1.52462C3.10182 0.914603 3.68778 0.454718 4.37996 0.228061C4.83952 0.0729271 5.32311 -0.00416022 5.80956 0.000173027H7.62876C7.88876 0.000173027 7.99996 0.105172 7.99996 0.35095V2.34828C7.99996 2.59328 7.88876 2.69906 7.62876 2.69906C7.12796 2.69906 6.62636 2.69906 6.12556 2.71695C5.62476 2.71695 5.36476 2.94484 5.36476 3.43562C5.34636 3.9614 5.36476 4.46928 5.36476 5.01295H7.51996C7.81676 5.01295 7.92796 5.11795 7.92796 5.40184V7.52206C7.92796 7.80206 7.83516 7.88995 7.51996 7.88995H5.36396V13.6019C5.36396 13.8998 5.27116 14.0048 4.93676 14.0048H2.61676C2.33836 14.0048 2.22716 13.8998 2.22716 13.6369V7.90239Z" fill="#4267B2"/>
</svg>
