<svg width="17" height="13" viewBox="0 0 17 13" fill="none" xmlns="http://www.w3.org/2000/svg">
<path d="M16.0798 1.63711C15.5086 1.88767 14.9 2.05375 14.2654 2.13439C14.9182 1.74463 15.4165 1.13215 15.6507 0.393908C15.0421 0.756788 14.3701 1.01311 13.6539 1.15615C13.076 0.540788 12.2523 0.159668 11.3538 0.159668C9.61041 0.159668 8.20689 1.57471 8.20689 3.30943C8.20689 3.55903 8.22801 3.79903 8.27985 4.02751C5.66193 3.89983 3.34545 2.64511 1.78929 0.733748C0.676457 2.7388 1.91985 4.38271 2.75697 4.94239C2.25105 4.93279 1.75473 4.78591 1.33425 4.55455C1.33425 6.11762 2.42577 7.39039 3.85713 7.68319C3.54417 7.78706 2.86046 7.84351 2.43537 7.73311C2.84337 8.98015 4.00113 9.89695 5.37777 9.92671C4.30641 10.7648 2.72759 11.4479 0.719849 11.2265C2.11473 12.1261 3.76785 12.6397 5.55057 12.6397C11.3451 12.6397 14.5131 7.83967 14.5131 3.67903C14.5131 3.53983 14.5083 3.40543 14.5016 3.27199C15.1266 2.82847 15.6517 2.27455 16.0798 1.63711Z" fill="#1DA1F3"/>
</svg>
