<svg width="17" height="17" viewBox="0 0 17 17" fill="none" xmlns="http://www.w3.org/2000/svg">
<g clip-path="url(#clip0_52_47)">
<path d="M1.39983 1.68896C0.142498 2.99496 0.399832 4.38229 0.399832 8.59696C0.399832 12.097 -0.210835 15.6056 2.98517 16.4316C3.98317 16.6883 12.8258 16.6883 13.8225 16.4303C15.1532 16.087 16.2358 15.0076 16.3838 13.1256C16.4045 12.863 16.4045 4.33563 16.3832 4.06763C16.2258 2.06296 14.9918 0.907625 13.3658 0.673625C12.9932 0.619625 12.9185 0.603625 11.0065 0.600291C4.2245 0.603625 2.73783 0.301625 1.39983 1.68896Z" fill="url(#paint0_linear_52_47)"/>
<path d="M8.39889 2.69271C5.97823 2.69271 3.67956 2.47738 2.80156 4.73071C2.43889 5.66138 2.49156 6.87005 2.49156 8.60071C2.49156 10.1194 2.44289 11.5467 2.80156 12.47C3.67756 14.7247 5.99489 14.5087 8.39756 14.5087C10.7156 14.5087 13.1056 14.75 13.9942 12.47C14.3576 11.53 14.3042 10.3394 14.3042 8.60071C14.3042 6.29271 14.4316 4.80271 13.3122 3.68405C12.1789 2.55071 10.6462 2.69271 8.39622 2.69271H8.39889ZM7.86956 3.75738C12.9189 3.74938 13.5616 3.18805 13.2069 10.986C13.0809 13.744 10.9809 13.4414 8.39956 13.4414C3.69289 13.4414 3.55756 13.3067 3.55756 8.59805C3.55756 3.83471 3.93089 3.76005 7.86956 3.75605V3.75738ZM11.5522 4.73805C11.1609 4.73805 10.8436 5.05538 10.8436 5.44671C10.8436 5.83805 11.1609 6.15538 11.5522 6.15538C11.9436 6.15538 12.2609 5.83805 12.2609 5.44671C12.2609 5.05538 11.9436 4.73805 11.5522 4.73805ZM8.39889 5.56671C6.72356 5.56671 5.36556 6.92538 5.36556 8.60071C5.36556 10.276 6.72356 11.634 8.39889 11.634C10.0742 11.634 11.4316 10.276 11.4316 8.60071C11.4316 6.92538 10.0742 5.56671 8.39889 5.56671ZM8.39889 6.63138C11.0022 6.63138 11.0056 10.57 8.39889 10.57C5.79623 10.57 5.79223 6.63138 8.39889 6.63138Z" fill="#1A1135"/>
</g>
<defs>
<linearGradient id="paint0_linear_52_47" x1="1.43051" y1="15.5784" x2="16.3008" y2="2.70827" gradientUnits="userSpaceOnUse">
<stop stop-color="#FFDD55"/>
<stop offset="0.5" stop-color="#FF543E"/>
<stop offset="1" stop-color="#C837AB"/>
</linearGradient>
<clipPath id="clip0_52_47">
<rect width="16" height="16" fill="white" transform="translate(0.400024 0.600098)"/>
</clipPath>
</defs>
</svg>
